<svg aria-hidden="true" style="width:0;height:0;position:absolute;overflow:hidden" xmlns="http://www.w3.org/2000/svg"><defs><symbol id="icon-search" viewBox="0 0 32 32"><path fill="none" stroke="#000" stroke-linejoin="round" stroke-linecap="round" stroke-width="2.286" d="M14.667 25.333c5.891 0 10.667-4.776 10.667-10.667S20.558 3.999 14.667 3.999 4 8.775 4 14.666s4.776 10.667 10.667 10.667zM27.999 28l-5.8-5.8"/></symbol><symbol id="icon-arrow-right" viewBox="0 0 32 32"><path stroke-linejoin="round" stroke-linecap="round" stroke-width="2.667" d="M6.666 16h18.667M16 25.334l9.333-9.333L16 6.668"/></symbol><symbol id="icon-arrow-left" viewBox="0 0 32 32"><path stroke-linejoin="round" stroke-linecap="round" stroke-width="2.667" d="M25.334 16H6.667M16 25.334l-9.333-9.333L16 6.668"/></symbol><symbol id="icon-close" viewBox="0 0 32 32"><path stroke-width="2.133" d="m8.533 8.533 14.933 14.933M8.533 23.467 23.466 8.534"/></symbol><symbol id="icon-film" viewBox="0 0 32 32"><path fill="none" stroke="#fff" style="stroke:var(--color1,#fff)" stroke-linejoin="round" stroke-linecap="round" stroke-width="2" d="M26.427 2.667H5.574a2.907 2.907 0 0 0-2.907 2.907v20.853a2.907 2.907 0 0 0 2.907 2.907h20.853a2.907 2.907 0 0 0 2.907-2.907V5.574a2.907 2.907 0 0 0-2.907-2.907zM9.333 2.667v26.667M22.667 2.667v26.667M2.667 16h26.667M2.667 9.334h6.667M2.667 22.666h6.667M22.667 22.666h6.667M22.667 9.334h6.667"/></symbol><symbol id="icon-favorite" viewBox="0 0 34 32"><path fill="#b92f2c" style="fill:var(--color1,#b92f2c)" d="m17.231 31.705-2.412-2.412C5.859 21.367.001 16.025.001 9.478.001 4.136 4.136.001 9.478.001c2.929 0 5.858 1.378 7.754 3.618 1.895-2.24 4.825-3.618 7.754-3.618 5.342 0 9.477 4.135 9.477 9.477 0 6.548-5.858 11.889-14.818 19.815l-2.412 2.412z"/></symbol><symbol id="icon-logo" viewBox="0 0 160 32"><path fill="none" stroke="#fff" style="stroke:var(--color1,#fff)" stroke-linejoin="round" stroke-linecap="round" stroke-width="1.707" d="M20.789 5.511H4.384a2.287 2.287 0 0 0-2.287 2.287v16.405a2.287 2.287 0 0 0 2.287 2.287h16.405a2.287 2.287 0 0 0 2.287-2.287V7.798a2.287 2.287 0 0 0-2.287-2.287zM7.342 5.511v20.978M17.831 5.511v20.978M2.098 16h20.978M2.098 10.756h5.244M2.098 21.244h5.244M17.831 21.244h5.244M17.831 10.756h5.244"/><path fill="#fff" style="fill:var(--color1,#fff)" d="M37.453 5.76v19.413h-3.347V5.76h3.347zm7.92 8.493v2.653H36.6v-2.653h8.773zM46.48 5.76v2.667H36.6V5.76h9.88zm5.787 4.987v14.427h-3.226V10.747h3.226zm-3.44-3.787c0-.489.16-.893.48-1.213.329-.329.782-.493 1.36-.493.569 0 1.018.164 1.347.493.329.32.493.724.493 1.213 0 .48-.164.88-.493 1.2s-.778.48-1.347.48c-.578 0-1.031-.16-1.36-.48-.32-.32-.48-.72-.48-1.2zm10.399-2.267v20.48H56V4.693h3.226zm6.734 8.987v11.493h-3.214V10.746h3.027l.187 2.933zm-.52 3.747-1.094-.013c0-.996.125-1.916.374-2.76s.613-1.578 1.093-2.2a4.8 4.8 0 0 1 1.787-1.453c.72-.347 1.551-.52 2.493-.52.658 0 1.258.098 1.8.293a3.571 3.571 0 0 1 1.427.893c.409.409.72.933.933 1.573.222.64.333 1.413.333 2.32v9.613h-3.213V15.84c0-.702-.107-1.253-.32-1.653a1.771 1.771 0 0 0-.893-.853c-.382-.178-.84-.267-1.373-.267-.605 0-1.12.116-1.547.347-.418.231-.76.547-1.027.947s-.463.862-.587 1.387a7.28 7.28 0 0 0-.186 1.68zm8.947-.854-1.507.333c0-.871.12-1.693.36-2.467a6.285 6.285 0 0 1 1.08-2.053c.48-.596 1.071-1.062 1.773-1.4s1.507-.507 2.413-.507c.738 0 1.396.102 1.973.307.587.196 1.085.507 1.493.933s.72.982.933 1.667c.213.676.32 1.493.32 2.453v9.333h-3.226v-9.347c0-.729-.107-1.293-.32-1.693-.204-.4-.498-.676-.88-.827-.382-.16-.84-.24-1.373-.24-.498 0-.938.093-1.32.28a2.626 2.626 0 0 0-.947.76c-.258.32-.453.689-.587 1.107a4.762 4.762 0 0 0-.186 1.36zM85.92 18.12v-.307c0-1.04.151-2.004.454-2.893a6.874 6.874 0 0 1 1.306-2.333 5.901 5.901 0 0 1 2.107-1.547c.835-.373 1.778-.56 2.826-.56 1.058 0 2 .187 2.827.56.835.364 1.542.88 2.12 1.547a6.756 6.756 0 0 1 1.32 2.333c.302.889.453 1.853.453 2.893v.307c0 1.04-.151 2.004-.453 2.893s-.742 1.667-1.32 2.333a6.128 6.128 0 0 1-2.106 1.547c-.827.364-1.765.547-2.813.547-1.058 0-2.004-.182-2.84-.547a6.11 6.11 0 0 1-2.107-1.547c-.578-.667-1.018-1.444-1.32-2.333s-.454-1.853-.454-2.893zm3.213-.307v.307c0 .649.067 1.262.2 1.84s.342 1.084.627 1.52c.284.436.649.778 1.093 1.027s.974.373 1.587.373c.596 0 1.111-.124 1.547-.373.445-.249.809-.591 1.093-1.027s.494-.942.627-1.52a7.688 7.688 0 0 0 .213-1.84v-.307c0-.64-.071-1.244-.213-1.813a4.629 4.629 0 0 0-.64-1.533 3.063 3.063 0 0 0-1.093-1.04c-.436-.258-.956-.387-1.56-.387s-1.129.129-1.573.387c-.436.249-.796.596-1.08 1.04s-.493.956-.627 1.533a7.889 7.889 0 0 0-.2 1.813zm19.507-7.066v2.347h-8.134v-2.347h8.134zm-5.787-3.534h3.214v13.973c0 .444.062.787.186 1.027.134.231.316.387.547.467s.503.12.814.12c.222 0 .436-.013.64-.04s.369-.053.493-.08l.013 2.453c-.267.08-.578.151-.933.213a6.884 6.884 0 0 1-1.2.093c-.738 0-1.391-.129-1.96-.387-.569-.267-1.013-.698-1.333-1.293s-.48-1.387-.48-2.373V7.213zM117.48 25.44c-1.067 0-2.031-.173-2.894-.52a6.392 6.392 0 0 1-2.186-1.48c-.596-.631-1.053-1.373-1.373-2.227s-.48-1.773-.48-2.76v-.533c0-1.129.164-2.151.493-3.067s.787-1.698 1.373-2.347c.587-.658 1.28-1.16 2.08-1.507s1.667-.52 2.6-.52c1.031 0 1.933.173 2.706.52s1.414.836 1.92 1.467c.516.622.898 1.364 1.147 2.227.258.862.387 1.813.387 2.853v1.373h-11.147v-2.307h7.974v-.253a4.526 4.526 0 0 0-.347-1.627c-.204-.507-.52-.916-.947-1.227s-.995-.467-1.707-.467c-.533 0-1.009.116-1.427.347-.409.222-.751.547-1.027.973s-.489.942-.64 1.547a8.708 8.708 0 0 0-.213 2.013v.533c0 .631.084 1.218.253 1.76.178.533.436 1 .773 1.4s.747.716 1.227.947c.48.222 1.027.333 1.64.333.774 0 1.462-.156 2.067-.467s1.129-.751 1.573-1.32l1.693 1.64a6.637 6.637 0 0 1-1.213 1.307c-.498.409-1.107.742-1.827 1-.711.258-1.538.387-2.48.387zM129 4.693v20.48h-3.227V4.693H129zm8.96 6.054-6.28 6.96-3.44 3.52-.84-2.72 2.6-3.213 4.08-4.547h3.88zm-3.187 14.426-4.68-6.773 2.027-2.253 6.374 9.027h-3.72zm13.361-2.893V15.4c0-.516-.093-.96-.28-1.333s-.471-.662-.853-.867c-.373-.204-.844-.307-1.413-.307-.524 0-.978.089-1.36.267s-.68.418-.893.72c-.213.302-.32.644-.32 1.027h-3.2c0-.569.137-1.12.413-1.653s.676-1.009 1.2-1.427c.524-.418 1.151-.747 1.88-.987s1.547-.36 2.453-.36c1.085 0 2.045.182 2.88.547a4.383 4.383 0 0 1 1.987 1.653c.489.729.733 1.644.733 2.747v6.413c0 .658.044 1.249.133 1.773.098.516.236.964.413 1.347v.213h-3.293c-.151-.347-.271-.787-.36-1.32a10.78 10.78 0 0 1-.12-1.573zm.466-5.88.027 1.987h-2.307c-.596 0-1.12.058-1.574.173-.453.107-.831.267-1.133.48s-.529.471-.68.773-.227.644-.227 1.027c0 .382.089.733.267 1.053.178.311.436.556.773.733.347.178.765.267 1.254.267.657 0 1.231-.133 1.72-.4.498-.276.889-.609 1.173-1 .285-.4.436-.778.454-1.133l1.04 1.427c-.107.364-.289.756-.547 1.173s-.596.818-1.013 1.2a5.04 5.04 0 0 1-1.48.92c-.569.24-1.227.36-1.973.36-.942 0-1.782-.187-2.52-.56-.738-.382-1.316-.893-1.734-1.533-.418-.649-.626-1.382-.626-2.2 0-.764.142-1.44.427-2.027a3.965 3.965 0 0 1 1.28-1.493c.569-.4 1.262-.702 2.08-.907.818-.213 1.751-.32 2.8-.32h2.52z"/></symbol></defs></svg>