<svg aria-hidden="true" style="width:0;height:0;position:absolute;overflow:hidden" xmlns="http://www.w3.org/2000/svg"><defs><symbol id="icon-search" viewBox="0 0 32 32"><path fill="none" stroke="#000" stroke-linejoin="round" stroke-linecap="round" stroke-width="2.286" d="M14.667 25.333c5.891 0 10.667-4.776 10.667-10.667S20.558 3.999 14.667 3.999 4 8.775 4 14.666s4.776 10.667 10.667 10.667zM27.999 28l-5.8-5.8"/></symbol><symbol id="icon-arrow-right" viewBox="0 0 32 32"><path stroke-linejoin="round" stroke-linecap="round" stroke-width="2.667" d="M6.666 16h18.667M16 25.334l9.333-9.333L16 6.668"/></symbol><symbol id="icon-arrow-left" viewBox="0 0 32 32"><path stroke-linejoin="round" stroke-linecap="round" stroke-width="2.667" d="M25.334 16H6.667M16 25.334l-9.333-9.333L16 6.668"/></symbol><symbol id="icon-close" viewBox="0 0 32 32"><path stroke-width="2.133" d="m8.533 8.533 14.933 14.933M8.533 23.467 23.466 8.534"/></symbol><symbol id="icon-close-black" viewBox="0 0 32 32"><path stroke="#000" stroke-width="2.133" d="m8.533 8.533 14.933 14.933M8.533 23.467 23.466 8.534"/></symbol><symbol id="icon-film" viewBox="0 0 32 32"><path fill="none" stroke="#fff" style="stroke:var(--color1,#fff)" stroke-linejoin="round" stroke-linecap="round" stroke-width="2" d="M26.427 2.667H5.574a2.907 2.907 0 0 0-2.907 2.907v20.853a2.907 2.907 0 0 0 2.907 2.907h20.853a2.907 2.907 0 0 0 2.907-2.907V5.574a2.907 2.907 0 0 0-2.907-2.907zM9.333 2.667v26.667M22.667 2.667v26.667M2.667 16h26.667M2.667 9.334h6.667M2.667 22.666h6.667M22.667 22.666h6.667M22.667 9.334h6.667"/></symbol><symbol id="icon-favorite" viewBox="0 0 34 32"><path fill="#b92f2c" style="fill:var(--color1,#b92f2c)" d="m17.231 31.705-2.412-2.412C5.859 21.367.001 16.025.001 9.478.001 4.136 4.136.001 9.478.001c2.929 0 5.858 1.378 7.754 3.618 1.895-2.24 4.825-3.618 7.754-3.618 5.342 0 9.477 4.135 9.477 9.477 0 6.548-5.858 11.889-14.818 19.815l-2.412 2.412z"/></symbol><symbol id="icon-logo" viewBox="0 0 160 32"><path fill="none" stroke="#fff" style="stroke:var(--color1,#fff)" stroke-linejoin="round" stroke-linecap="round" stroke-width="1.707" d="M20.789 5.511H4.384a2.287 2.287 0 0 0-2.287 2.287v16.405a2.287 2.287 0 0 0 2.287 2.287h16.405a2.287 2.287 0 0 0 2.287-2.287V7.798a2.287 2.287 0 0 0-2.287-2.287zM7.342 5.511v20.978M17.831 5.511v20.978M2.098 16h20.978M2.098 10.756h5.244M2.098 21.244h5.244M17.831 21.244h5.244M17.831 10.756h5.244"/><path fill="#fff" style="fill:var(--color1,#fff)" d="M37.453 5.76v19.413h-3.347V5.76h3.347zm7.92 8.493v2.653H36.6v-2.653h8.773zM46.48 5.76v2.667H36.6V5.76h9.88zm5.787 4.987v14.427h-3.226V10.747h3.226zm-3.44-3.787c0-.489.16-.893.48-1.213.329-.329.782-.493 1.36-.493.569 0 1.018.164 1.347.493.329.32.493.724.493 1.213 0 .48-.164.88-.493 1.2s-.778.48-1.347.48c-.578 0-1.031-.16-1.36-.48-.32-.32-.48-.72-.48-1.2zm10.399-2.267v20.48H56V4.693h3.226zm6.734 8.987v11.493h-3.214V10.746h3.027l.187 2.933zm-.52 3.747-1.094-.013c0-.996.125-1.916.374-2.76s.613-1.578 1.093-2.2a4.8 4.8 0 0 1 1.787-1.453c.72-.347 1.551-.52 2.493-.52.658 0 1.258.098 1.8.293a3.571 3.571 0 0 1 1.427.893c.409.409.72.933.933 1.573.222.64.333 1.413.333 2.32v9.613h-3.213V15.84c0-.702-.107-1.253-.32-1.653a1.771 1.771 0 0 0-.893-.853c-.382-.178-.84-.267-1.373-.267-.605 0-1.12.116-1.547.347-.418.231-.76.547-1.027.947s-.463.862-.587 1.387a7.28 7.28 0 0 0-.186 1.68zm8.947-.854-1.507.333c0-.871.12-1.693.36-2.467a6.285 6.285 0 0 1 1.08-2.053c.48-.596 1.071-1.062 1.773-1.4s1.507-.507 2.413-.507c.738 0 1.396.102 1.973.307.587.196 1.085.507 1.493.933s.72.982.933 1.667c.213.676.32 1.493.32 2.453v9.333h-3.226v-9.347c0-.729-.107-1.293-.32-1.693-.204-.4-.498-.676-.88-.827-.382-.16-.84-.24-1.373-.24-.498 0-.938.093-1.32.28a2.626 2.626 0 0 0-.947.76c-.258.32-.453.689-.587 1.107a4.762 4.762 0 0 0-.186 1.36zM85.92 18.12v-.307c0-1.04.151-2.004.454-2.893a6.874 6.874 0 0 1 1.306-2.333 5.901 5.901 0 0 1 2.107-1.547c.835-.373 1.778-.56 2.826-.56 1.058 0 2 .187 2.827.56.835.364 1.542.88 2.12 1.547a6.756 6.756 0 0 1 1.32 2.333c.302.889.453 1.853.453 2.893v.307c0 1.04-.151 2.004-.453 2.893s-.742 1.667-1.32 2.333a6.128 6.128 0 0 1-2.106 1.547c-.827.364-1.765.547-2.813.547-1.058 0-2.004-.182-2.84-.547a6.11 6.11 0 0 1-2.107-1.547c-.578-.667-1.018-1.444-1.32-2.333s-.454-1.853-.454-2.893zm3.213-.307v.307c0 .649.067 1.262.2 1.84s.342 1.084.627 1.52c.284.436.649.778 1.093 1.027s.974.373 1.587.373c.596 0 1.111-.124 1.547-.373.445-.249.809-.591 1.093-1.027s.494-.942.627-1.52a7.688 7.688 0 0 0 .213-1.84v-.307c0-.64-.071-1.244-.213-1.813a4.629 4.629 0 0 0-.64-1.533 3.063 3.063 0 0 0-1.093-1.04c-.436-.258-.956-.387-1.56-.387s-1.129.129-1.573.387c-.436.249-.796.596-1.08 1.04s-.493.956-.627 1.533a7.889 7.889 0 0 0-.2 1.813zm19.507-7.066v2.347h-8.134v-2.347h8.134zm-5.787-3.534h3.214v13.973c0 .444.062.787.186 1.027.134.231.316.387.547.467s.503.12.814.12c.222 0 .436-.013.64-.04s.369-.053.493-.08l.013 2.453c-.267.08-.578.151-.933.213a6.884 6.884 0 0 1-1.2.093c-.738 0-1.391-.129-1.96-.387-.569-.267-1.013-.698-1.333-1.293s-.48-1.387-.48-2.373V7.213zM117.48 25.44c-1.067 0-2.031-.173-2.894-.52a6.392 6.392 0 0 1-2.186-1.48c-.596-.631-1.053-1.373-1.373-2.227s-.48-1.773-.48-2.76v-.533c0-1.129.164-2.151.493-3.067s.787-1.698 1.373-2.347c.587-.658 1.28-1.16 2.08-1.507s1.667-.52 2.6-.52c1.031 0 1.933.173 2.706.52s1.414.836 1.92 1.467c.516.622.898 1.364 1.147 2.227.258.862.387 1.813.387 2.853v1.373h-11.147v-2.307h7.974v-.253a4.526 4.526 0 0 0-.347-1.627c-.204-.507-.52-.916-.947-1.227s-.995-.467-1.707-.467c-.533 0-1.009.116-1.427.347-.409.222-.751.547-1.027.973s-.489.942-.64 1.547a8.708 8.708 0 0 0-.213 2.013v.533c0 .631.084 1.218.253 1.76.178.533.436 1 .773 1.4s.747.716 1.227.947c.48.222 1.027.333 1.64.333.774 0 1.462-.156 2.067-.467s1.129-.751 1.573-1.32l1.693 1.64a6.637 6.637 0 0 1-1.213 1.307c-.498.409-1.107.742-1.827 1-.711.258-1.538.387-2.48.387zM129 4.693v20.48h-3.227V4.693H129zm8.96 6.054-6.28 6.96-3.44 3.52-.84-2.72 2.6-3.213 4.08-4.547h3.88zm-3.187 14.426-4.68-6.773 2.027-2.253 6.374 9.027h-3.72zm13.361-2.893V15.4c0-.516-.093-.96-.28-1.333s-.471-.662-.853-.867c-.373-.204-.844-.307-1.413-.307-.524 0-.978.089-1.36.267s-.68.418-.893.72c-.213.302-.32.644-.32 1.027h-3.2c0-.569.137-1.12.413-1.653s.676-1.009 1.2-1.427c.524-.418 1.151-.747 1.88-.987s1.547-.36 2.453-.36c1.085 0 2.045.182 2.88.547a4.383 4.383 0 0 1 1.987 1.653c.489.729.733 1.644.733 2.747v6.413c0 .658.044 1.249.133 1.773.098.516.236.964.413 1.347v.213h-3.293c-.151-.347-.271-.787-.36-1.32a10.78 10.78 0 0 1-.12-1.573zm.466-5.88.027 1.987h-2.307c-.596 0-1.12.058-1.574.173-.453.107-.831.267-1.133.48s-.529.471-.68.773-.227.644-.227 1.027c0 .382.089.733.267 1.053.178.311.436.556.773.733.347.178.765.267 1.254.267.657 0 1.231-.133 1.72-.4.498-.276.889-.609 1.173-1 .285-.4.436-.778.454-1.133l1.04 1.427c-.107.364-.289.756-.547 1.173s-.596.818-1.013 1.2a5.04 5.04 0 0 1-1.48.92c-.569.24-1.227.36-1.973.36-.942 0-1.782-.187-2.52-.56-.738-.382-1.316-.893-1.734-1.533-.418-.649-.626-1.382-.626-2.2 0-.764.142-1.44.427-2.027a3.965 3.965 0 0 1 1.28-1.493c.569-.4 1.262-.702 2.08-.907.818-.213 1.751-.32 2.8-.32h2.52z"/></symbol><symbol id="icon-person" viewBox="0 0 32 32"><path style="fill:currentColor" d="M2.48 8.554h2.332C6.78 4.49 10.873 1.738 15.608 1.738c2.306 0 4.46.653 6.286 1.783l-.051-.03.155-.085.776-1.419a.481.481 0 0 1 .841-.003l.001.002.776 1.419 1.419.776a.481.481 0 0 1 .003.841l-.002.001-1.282.703a11.906 11.906 0 0 1 1.757 2.53l.031.067c.037.074.072.153.108.23h2.368c.666.001 1.205.54 1.206 1.205v3.419a1.207 1.207 0 0 1-2.414 0v-.021.001-2.193h-.31c.207.832.326 1.787.326 2.77 0 2.347-.678 4.536-1.849 6.382l.029-.049 1.105.603a.481.481 0 0 1 .003.841l-.002.001-.657.36c2.241 1.105 3.758 3.368 3.769 5.987v1.922a.48.48 0 0 1-.48.48H2.48a.48.48 0 0 1-.48-.48v-1.92a6.671 6.671 0 0 1 4.497-6.285l.047-.014a11.952 11.952 0 0 1-1.56-2.297l-.031-.066a.413.413 0 0 1-.074.01h-.001a.48.48 0 0 1-.42-.247l-.001-.002-.728-1.331-1.222-.67H2.48a.48.48 0 0 1-.48-.48V9.033a.48.48 0 0 1 .48-.48zm.48 7.197.583-.32a.475.475 0 0 1-.113-.305v-4.639a.48.48 0 0 1 .48-.48h6.163a.48.48 0 0 1 .48.48v3.21a.48.48 0 0 1-.96 0v-2.73H4.39v3.155l.066-.121a.48.48 0 0 1 .841-.003l.001.002.354.647h2.72a.48.48 0 0 1 0 .96h-1.84l.719.394h2.521l1.992-1.995V9.514H2.96zm18.109-6.237h-8.345v4.514L14.419 16h6.65zm-5.453-6.816a11.036 11.036 0 0 0-9.708 5.798l-.029.058h19.476a11.008 11.008 0 0 0-1.384-2.016l.012.014-.366.669a.481.481 0 0 1-.841.003l-.001-.002-.776-1.419-1.419-.777a.481.481 0 0 1-.003-.841l.002-.001.284-.155a10.827 10.827 0 0 0-5.23-1.329h-.018.001zm8.192 1.484a.478.478 0 0 1-.191-.19l-.001-.002-.422-.772-.422.772a.478.478 0 0 1-.19.191l-.002.001-.772.422.772.422c.082.045.147.11.191.19l.001.002.422.772.422-.774a.478.478 0 0 1 .19-.191l.002-.001.772-.422zm4.259 5.824a.48.48 0 0 1 .48.48v2.682a.247.247 0 1 0 .494 0V9.76a.25.25 0 0 0-.247-.246h-6.765v.492h6.038zm-1.78.96h-4.258v5.514a.48.48 0 0 1-.48.48h-7.35a.478.478 0 0 1-.363-.166l-.001-.001-1.618-1.881-1.906 1.909a.479.479 0 0 1-.338.139H7.249l-1.222.668-.408.745c1.791 3.803 5.591 6.389 9.996 6.389 2.745 0 5.255-1.004 7.183-2.664l-.014.012-1.088-.595a.481.481 0 0 1-.003-.841l.002-.001 1.406-.768.768-1.405a.481.481 0 0 1 .841-.003l.001.002.43.786c.943-1.588 1.5-3.5 1.5-5.543 0-.987-.13-1.944-.374-2.854l.018.077zm-1.6 10.774a.201.201 0 0 1 .014-.025l.008-.015.018-.023.026-.035a.466.466 0 0 1 .145-.131l.002-.001.759-.416-.759-.416a.478.478 0 0 1-.191-.19l-.001-.002-.416-.759-.416.759a.478.478 0 0 1-.19.191l-.002.001-.759.416.759.416c.082.045.147.11.191.19l.001.002.416.759zM2.96 27.862v1.44h5.26v-2.336a.48.48 0 0 1 .96 0v2.336h13.933v-2.336a.48.48 0 0 1 .96 0v2.336h4.966v-1.44a5.718 5.718 0 0 0-3.659-5.309l-.039-.013-.629 1.15a.481.481 0 0 1-.841.003l-.001-.002-.465-.85a11.91 11.91 0 0 1-7.79 2.882c-3.24 0-6.179-1.287-8.334-3.377l.003.003c-2.498.637-4.316 2.862-4.325 5.514v.001zm1.353-11.008a.491.491 0 0 1 .191.19l.001.002.373.682.374-.684a.478.478 0 0 1 .19-.191l.002-.001.683-.372-.684-.374a.478.478 0 0 1-.191-.19l-.001-.002-.374-.684-.374.684a.491.491 0 0 1-.19.191l-.002.001-.682.374z"/><path style="fill:currentColor" d="M13.647 13.696v-3.21a.48.48 0 0 1 .48-.48h6.164a.48.48 0 0 1 .48.48v4.64a.48.48 0 0 1-.48.48H15.83a.48.48 0 0 1 0-.96h3.981v-3.68h-5.204v2.73a.48.48 0 0 1-.96 0zM13.258 22.176a.525.525 0 0 1-.061.006h-1.636a.653.653 0 0 1-.065-.006h.003a2.21 2.21 0 0 1-2.144-2.202v-.908a.48.48 0 0 1 .48-.48h5.086a.48.48 0 0 1 .48.48v.908a2.209 2.209 0 0 1-2.14 2.202h-.003zm1.184-2.631h-4.126v.428a1.249 1.249 0 0 0 1.245 1.246h1.635a1.248 1.248 0 0 0 1.245-1.246z"/></symbol><symbol id="icon-github" viewBox="0 0 32 32"><path d="M11.386 29.975a1.28 1.28 0 0 0 .774-1.175v-3.456c0-.126.01-.257.026-.39l-.026.006H9.856c-.96 0-1.792-.384-2.176-1.152-.448-.832-.64-2.24-1.792-3.008-.192-.128-.064-.32.32-.32.384.064 1.216.576 1.728 1.28.576.704 1.152 1.28 2.176 1.28 1.592 0 2.445-.08 2.958-.355.598-.889 1.425-1.565 2.29-1.565v-.016c-3.628-.116-5.945-1.322-7.024-3.184-2.346.027-4.388.259-5.553.452-.037-.209-.069-.42-.097-.632 1.15-.189 3.1-.414 5.341-.457a5.109 5.109 0 0 1-.186-.543 41.363 41.363 0 0 0-5.24.062c-.013-.212-.03-.424-.033-.639a41.97 41.97 0 0 1 5.132-.071 6.241 6.241 0 0 1-.083-.988c0-1.088.384-2.24 1.088-3.2-.32-1.088-.768-3.392.128-4.224 1.728 0 2.944.832 3.52 1.344 1.087-.449 2.303-.705 3.647-.705s2.56.256 3.584.704c.576-.512 1.792-1.344 3.52-1.344.96.896.448 3.2.128 4.224.704.96 1.088 2.048 1.024 3.2 0 .31-.029.609-.07.902a42.326 42.326 0 0 1 5.251.065c-.001.216-.021.426-.033.639a41.569 41.569 0 0 0-5.35-.057 5.293 5.293 0 0 1-.208.627c2.269.029 4.266.249 5.471.441-.028.212-.06.423-.097.632-1.224-.196-3.309-.425-5.683-.436-1.066 1.842-3.341 3.043-6.897 3.183v.02c1.664 0 3.2 2.496 3.2 4.224v3.456c0 .527.319.979.774 1.175 5.863-1.94 10.106-7.47 10.106-13.975 0-8.116-6.603-14.72-14.72-14.72S1.28 7.883 1.28 15.999c0 6.505 4.243 12.035 10.106 13.975z"/></symbol></defs></svg>