<svg aria-hidden="true" style="position: absolute; width: 0; height: 0; overflow: hidden;" version="1.1"
    xmlns="http://www.w3.org/2000/svg" xmlns:xlink="http://www.w3.org/1999/xlink">
    <defs>
        <symbol id="icon-search" viewBox="0 0 32 32">
            <path fill="none" stroke="#000" stroke-linejoin="round" stroke-linecap="round" stroke-miterlimit="4"
                stroke-width="2.2857"
                d="M14.667 25.333c5.891 0 10.667-4.776 10.667-10.667s-4.776-10.667-10.667-10.667c-5.891 0-10.667 4.776-10.667 10.667s4.776 10.667 10.667 10.667z">
            </path>
            <path fill="none" stroke="#000" stroke-linejoin="round" stroke-linecap="round" stroke-miterlimit="4"
                stroke-width="2.2857" d="M27.999 28l-5.8-5.8"></path>
        </symbol>
        <symbol id="icon-arrow-right" viewBox="0 0 32 32">
            <path stroke-linejoin="round" stroke-linecap="round" stroke-miterlimit="4" stroke-width="2.6667"
                d="M6.666 16h18.667"></path>
            <path stroke-linejoin="round" stroke-linecap="round" stroke-miterlimit="4" stroke-width="2.6667"
                d="M16 25.334l9.333-9.333-9.333-9.333"></path>
        </symbol>
        <symbol id="icon-arrow-left" viewBox="0 0 32 32">
            <path stroke-linejoin="round" stroke-linecap="round" stroke-miterlimit="4" stroke-width="2.6667"
                d="M25.334 16h-18.667"></path>
            <path stroke-linejoin="round" stroke-linecap="round" stroke-miterlimit="4" stroke-width="2.6667"
                d="M16 25.334l-9.333-9.333 9.333-9.333"></path>
        </symbol>
        <symbol id="icon-close" viewBox="0 0 32 32">
            <path stroke-linejoin="miter" stroke-linecap="butt" stroke-miterlimit="4" stroke-width="2.1333"
                d="M8.533 8.533l14.933 14.933"></path>
            <path stroke-linejoin="miter" stroke-linecap="butt" stroke-miterlimit="4" stroke-width="2.1333"
                d="M8.533 23.467l14.933-14.933"></path>
        </symbol>
        <symbol id="icon-close-black" viewBox="0 0 32 32">
            <path stroke="#000" stroke-linejoin="miter" stroke-linecap="butt" stroke-miterlimit="4"
                stroke-width="2.1333" d="M8.533 8.533l14.933 14.933"></path>
            <path stroke="#000" stroke-linejoin="miter" stroke-linecap="butt" stroke-miterlimit="4"
                stroke-width="2.1333" d="M8.533 23.467l14.933-14.933"></path>
        </symbol>
        <symbol id="icon-film" viewBox="0 0 32 32">
            <path fill="none" stroke="#fff" style="stroke: var(--color1, #fff)" stroke-linejoin="round"
                stroke-linecap="round" stroke-miterlimit="4" stroke-width="2"
                d="M26.427 2.667h-20.853c-1.605 0-2.907 1.301-2.907 2.907v20.853c0 1.605 1.301 2.907 2.907 2.907h20.853c1.605 0 2.907-1.301 2.907-2.907v-20.853c0-1.605-1.301-2.907-2.907-2.907z">
            </path>
            <path fill="none" stroke="#fff" style="stroke: var(--color1, #fff)" stroke-linejoin="round"
                stroke-linecap="round" stroke-miterlimit="4" stroke-width="2" d="M9.333 2.667v26.667"></path>
            <path fill="none" stroke="#fff" style="stroke: var(--color1, #fff)" stroke-linejoin="round"
                stroke-linecap="round" stroke-miterlimit="4" stroke-width="2" d="M22.667 2.667v26.667"></path>
            <path fill="none" stroke="#fff" style="stroke: var(--color1, #fff)" stroke-linejoin="round"
                stroke-linecap="round" stroke-miterlimit="4" stroke-width="2" d="M2.667 16h26.667"></path>
            <path fill="none" stroke="#fff" style="stroke: var(--color1, #fff)" stroke-linejoin="round"
                stroke-linecap="round" stroke-miterlimit="4" stroke-width="2" d="M2.667 9.334h6.667"></path>
            <path fill="none" stroke="#fff" style="stroke: var(--color1, #fff)" stroke-linejoin="round"
                stroke-linecap="round" stroke-miterlimit="4" stroke-width="2" d="M2.667 22.666h6.667"></path>
            <path fill="none" stroke="#fff" style="stroke: var(--color1, #fff)" stroke-linejoin="round"
                stroke-linecap="round" stroke-miterlimit="4" stroke-width="2" d="M22.667 22.666h6.667"></path>
            <path fill="none" stroke="#fff" style="stroke: var(--color1, #fff)" stroke-linejoin="round"
                stroke-linecap="round" stroke-miterlimit="4" stroke-width="2" d="M22.667 9.334h6.667"></path>
        </symbol>
        <symbol id="icon-favorite" viewBox="0 0 34 32">
            <path fill="#b92f2c" style="fill: var(--color1, #b92f2c)"
                d="M17.231 31.705l-2.412-2.412c-8.96-7.926-14.818-13.268-14.818-19.815 0-5.342 4.135-9.477 9.477-9.477 2.929 0 5.858 1.378 7.754 3.618 1.895-2.24 4.825-3.618 7.754-3.618 5.342 0 9.477 4.135 9.477 9.477 0 6.548-5.858 11.889-14.818 19.815l-2.412 2.412z">
            </path>
        </symbol>

        <symbol id="icon-logo" viewBox="0 0 160 32">
            <path fill="none" stroke="#fff" style="stroke: var(--color1, #fff)" stroke-linejoin="round"
                stroke-linecap="round" stroke-miterlimit="4" stroke-width="1.7067"
                d="M20.789 5.511h-16.405c-1.263 0-2.287 1.024-2.287 2.287v16.405c0 1.263 1.024 2.287 2.287 2.287h16.405c1.263 0 2.287-1.024 2.287-2.287v-16.405c0-1.263-1.024-2.287-2.287-2.287z">
            </path>
            <path fill="none" stroke="#fff" style="stroke: var(--color1, #fff)" stroke-linejoin="round"
                stroke-linecap="round" stroke-miterlimit="4" stroke-width="1.7067" d="M7.342 5.511v20.978"></path>
            <path fill="none" stroke="#fff" style="stroke: var(--color1, #fff)" stroke-linejoin="round"
                stroke-linecap="round" stroke-miterlimit="4" stroke-width="1.7067" d="M17.831 5.511v20.978"></path>
            <path fill="none" stroke="#fff" style="stroke: var(--color1, #fff)" stroke-linejoin="round"
                stroke-linecap="round" stroke-miterlimit="4" stroke-width="1.7067" d="M2.098 16h20.978"></path>
            <path fill="none" stroke="#fff" style="stroke: var(--color1, #fff)" stroke-linejoin="round"
                stroke-linecap="round" stroke-miterlimit="4" stroke-width="1.7067" d="M2.098 10.756h5.244"></path>
            <path fill="none" stroke="#fff" style="stroke: var(--color1, #fff)" stroke-linejoin="round"
                stroke-linecap="round" stroke-miterlimit="4" stroke-width="1.7067" d="M2.098 21.244h5.244"></path>
            <path fill="none" stroke="#fff" style="stroke: var(--color1, #fff)" stroke-linejoin="round"
                stroke-linecap="round" stroke-miterlimit="4" stroke-width="1.7067" d="M17.831 21.244h5.244"></path>
            <path fill="none" stroke="#fff" style="stroke: var(--color1, #fff)" stroke-linejoin="round"
                stroke-linecap="round" stroke-miterlimit="4" stroke-width="1.7067" d="M17.831 10.756h5.244"></path>
            <path fill="#fff" style="fill: var(--color1, #fff)"
                d="M37.453 5.76v19.413h-3.347v-19.413h3.347zM45.373 14.253v2.653h-8.773v-2.653h8.773zM46.48 5.76v2.667h-9.88v-2.667h9.88zM52.267 10.747v14.427h-3.226v-14.427h3.226zM48.827 6.96c0-0.489 0.16-0.893 0.48-1.213 0.329-0.329 0.782-0.493 1.36-0.493 0.569 0 1.018 0.164 1.347 0.493 0.329 0.32 0.493 0.724 0.493 1.213 0 0.48-0.164 0.88-0.493 1.2s-0.778 0.48-1.347 0.48c-0.578 0-1.031-0.16-1.36-0.48-0.32-0.32-0.48-0.72-0.48-1.2zM59.226 4.693v20.48h-3.226v-20.48h3.226zM65.96 13.68v11.493h-3.214v-14.427h3.027l0.187 2.933zM65.44 17.427l-1.094-0.013c0-0.996 0.125-1.916 0.374-2.76s0.613-1.578 1.093-2.2c0.48-0.631 1.076-1.116 1.787-1.453 0.72-0.347 1.551-0.52 2.493-0.52 0.658 0 1.258 0.098 1.8 0.293 0.551 0.187 1.027 0.484 1.427 0.893 0.409 0.409 0.72 0.933 0.933 1.573 0.222 0.64 0.333 1.413 0.333 2.32v9.613h-3.213v-9.333c0-0.702-0.107-1.253-0.32-1.653-0.204-0.4-0.502-0.684-0.893-0.853-0.382-0.178-0.84-0.267-1.373-0.267-0.605 0-1.12 0.116-1.547 0.347-0.418 0.231-0.76 0.547-1.027 0.947s-0.463 0.862-0.587 1.387c-0.124 0.524-0.186 1.084-0.186 1.68zM74.387 16.573l-1.507 0.333c0-0.871 0.12-1.693 0.36-2.467 0.249-0.782 0.609-1.467 1.080-2.053 0.48-0.596 1.071-1.062 1.773-1.4s1.507-0.507 2.413-0.507c0.738 0 1.396 0.102 1.973 0.307 0.587 0.196 1.085 0.507 1.493 0.933s0.72 0.982 0.933 1.667c0.213 0.676 0.32 1.493 0.32 2.453v9.333h-3.226v-9.347c0-0.729-0.107-1.293-0.32-1.693-0.204-0.4-0.498-0.676-0.88-0.827-0.382-0.16-0.84-0.24-1.373-0.24-0.498 0-0.938 0.093-1.32 0.28-0.373 0.178-0.689 0.431-0.947 0.76-0.258 0.32-0.453 0.689-0.587 1.107-0.124 0.418-0.186 0.871-0.186 1.36zM85.92 18.12v-0.307c0-1.040 0.151-2.004 0.454-2.893 0.302-0.898 0.738-1.676 1.306-2.333 0.578-0.667 1.28-1.182 2.107-1.547 0.835-0.373 1.778-0.56 2.826-0.56 1.058 0 2 0.187 2.827 0.56 0.835 0.364 1.542 0.88 2.12 1.547 0.578 0.658 1.018 1.436 1.32 2.333 0.302 0.889 0.453 1.853 0.453 2.893v0.307c0 1.040-0.151 2.004-0.453 2.893s-0.742 1.667-1.32 2.333c-0.578 0.658-1.28 1.173-2.106 1.547-0.827 0.364-1.765 0.547-2.813 0.547-1.058 0-2.004-0.182-2.84-0.547-0.827-0.373-1.529-0.889-2.107-1.547-0.578-0.667-1.018-1.444-1.32-2.333s-0.454-1.853-0.454-2.893zM89.133 17.813v0.307c0 0.649 0.067 1.262 0.2 1.84s0.342 1.084 0.627 1.52c0.284 0.436 0.649 0.778 1.093 1.027s0.974 0.373 1.587 0.373c0.596 0 1.111-0.124 1.547-0.373 0.445-0.249 0.809-0.591 1.093-1.027s0.494-0.942 0.627-1.52c0.142-0.578 0.213-1.191 0.213-1.84v-0.307c0-0.64-0.071-1.244-0.213-1.813-0.133-0.578-0.346-1.089-0.64-1.533-0.284-0.444-0.649-0.791-1.093-1.040-0.436-0.258-0.956-0.387-1.56-0.387s-1.129 0.129-1.573 0.387c-0.436 0.249-0.796 0.596-1.080 1.040s-0.493 0.956-0.627 1.533c-0.134 0.569-0.2 1.173-0.2 1.813zM108.64 10.747v2.347h-8.134v-2.347h8.134zM102.853 7.213h3.214v13.973c0 0.444 0.062 0.787 0.186 1.027 0.134 0.231 0.316 0.387 0.547 0.467s0.503 0.12 0.814 0.12c0.222 0 0.436-0.013 0.64-0.040s0.369-0.053 0.493-0.080l0.013 2.453c-0.267 0.080-0.578 0.151-0.933 0.213-0.347 0.062-0.747 0.093-1.2 0.093-0.738 0-1.391-0.129-1.96-0.387-0.569-0.267-1.013-0.698-1.333-1.293s-0.48-1.387-0.48-2.373v-14.173zM117.48 25.44c-1.067 0-2.031-0.173-2.894-0.52-0.853-0.356-1.582-0.849-2.186-1.48-0.596-0.631-1.053-1.373-1.373-2.227s-0.48-1.773-0.48-2.76v-0.533c0-1.129 0.164-2.151 0.493-3.067s0.787-1.698 1.373-2.347c0.587-0.658 1.28-1.16 2.080-1.507s1.667-0.52 2.6-0.52c1.031 0 1.933 0.173 2.706 0.52s1.414 0.836 1.92 1.467c0.516 0.622 0.898 1.364 1.147 2.227 0.258 0.862 0.387 1.813 0.387 2.853v1.373h-11.147v-2.307h7.974v-0.253c-0.018-0.578-0.134-1.12-0.347-1.627-0.204-0.507-0.52-0.916-0.947-1.227s-0.995-0.467-1.707-0.467c-0.533 0-1.009 0.116-1.427 0.347-0.409 0.222-0.751 0.547-1.027 0.973s-0.489 0.942-0.64 1.547c-0.142 0.596-0.213 1.267-0.213 2.013v0.533c0 0.631 0.084 1.218 0.253 1.76 0.178 0.533 0.436 1 0.773 1.4s0.747 0.716 1.227 0.947c0.48 0.222 1.027 0.333 1.64 0.333 0.774 0 1.462-0.156 2.067-0.467s1.129-0.751 1.573-1.32l1.693 1.64c-0.311 0.453-0.716 0.889-1.213 1.307-0.498 0.409-1.107 0.742-1.827 1-0.711 0.258-1.538 0.387-2.48 0.387zM129 4.693v20.48h-3.227v-20.48h3.227zM137.96 10.747l-6.28 6.96-3.44 3.52-0.84-2.72 2.6-3.213 4.080-4.547h3.88zM134.773 25.173l-4.68-6.773 2.027-2.253 6.374 9.027h-3.72zM148.134 22.28v-6.88c0-0.516-0.093-0.96-0.28-1.333s-0.471-0.662-0.853-0.867c-0.373-0.204-0.844-0.307-1.413-0.307-0.524 0-0.978 0.089-1.36 0.267s-0.68 0.418-0.893 0.72c-0.213 0.302-0.32 0.644-0.32 1.027h-3.2c0-0.569 0.137-1.12 0.413-1.653s0.676-1.009 1.2-1.427c0.524-0.418 1.151-0.747 1.88-0.987s1.547-0.36 2.453-0.36c1.085 0 2.045 0.182 2.88 0.547 0.844 0.364 1.507 0.916 1.987 1.653 0.489 0.729 0.733 1.644 0.733 2.747v6.413c0 0.658 0.044 1.249 0.133 1.773 0.098 0.516 0.236 0.964 0.413 1.347v0.213h-3.293c-0.151-0.347-0.271-0.787-0.36-1.32-0.080-0.542-0.12-1.067-0.12-1.573zM148.6 16.4l0.027 1.987h-2.307c-0.596 0-1.12 0.058-1.574 0.173-0.453 0.107-0.831 0.267-1.133 0.48s-0.529 0.471-0.68 0.773-0.227 0.644-0.227 1.027c0 0.382 0.089 0.733 0.267 1.053 0.178 0.311 0.436 0.556 0.773 0.733 0.347 0.178 0.765 0.267 1.254 0.267 0.657 0 1.231-0.133 1.72-0.4 0.498-0.276 0.889-0.609 1.173-1 0.285-0.4 0.436-0.778 0.454-1.133l1.040 1.427c-0.107 0.364-0.289 0.756-0.547 1.173s-0.596 0.818-1.013 1.2c-0.409 0.373-0.902 0.68-1.48 0.92-0.569 0.24-1.227 0.36-1.973 0.36-0.942 0-1.782-0.187-2.52-0.56-0.738-0.382-1.316-0.893-1.734-1.533-0.418-0.649-0.626-1.382-0.626-2.2 0-0.764 0.142-1.44 0.427-2.027 0.293-0.596 0.72-1.093 1.28-1.493 0.569-0.4 1.262-0.702 2.080-0.907 0.818-0.213 1.751-0.32 2.8-0.32h2.52z">
            </path>
        </symbol>

        <symbol id="icon-person" viewBox="0 0 32 32">
            <path style="fill: currentColor;"
                d="M2.48 8.554h2.332c1.968-4.064 6.061-6.816 10.796-6.816 2.306 0 4.46 0.653 6.286 1.783l-0.051-0.030 0.155-0.085 0.776-1.419c0.083-0.15 0.241-0.25 0.421-0.25s0.338 0.1 0.42 0.247l0.001 0.002 0.776 1.419 1.419 0.776c0.15 0.083 0.25 0.241 0.25 0.421s-0.1 0.338-0.247 0.42l-0.002 0.001-1.282 0.703c0.684 0.753 1.279 1.606 1.757 2.53l0.031 0.067c0.037 0.074 0.072 0.153 0.108 0.23h2.368c0.666 0.001 1.205 0.54 1.206 1.205v3.399c0 0.006 0 0.013 0 0.020 0 0.666-0.54 1.207-1.207 1.207s-1.207-0.54-1.207-1.207c0-0.007 0-0.014 0-0.021v0.001-2.193h-0.31c0.207 0.832 0.326 1.787 0.326 2.77 0 2.347-0.678 4.536-1.849 6.382l0.029-0.049 1.105 0.603c0.15 0.083 0.25 0.241 0.25 0.421s-0.1 0.338-0.247 0.42l-0.002 0.001-0.657 0.36c2.241 1.105 3.758 3.368 3.769 5.987v1.922c0 0.265-0.215 0.48-0.48 0.48v0h-27.040c-0.265 0-0.48-0.215-0.48-0.48v0-1.92c0.010-2.914 1.887-5.387 4.497-6.285l0.047-0.014c-0.597-0.689-1.126-1.464-1.56-2.297l-0.031-0.066c-0.022 0.005-0.048 0.009-0.074 0.010l-0.001 0c0 0-0 0-0 0-0.181 0-0.338-0.1-0.42-0.247l-0.001-0.002-0.728-1.331-1.222-0.67h-0.027c-0.265 0-0.48-0.215-0.48-0.48v0-7.446c0-0.265 0.215-0.48 0.48-0.48v0zM2.96 15.751l0.583-0.32c-0.070-0.082-0.112-0.189-0.113-0.305v-4.639c0-0.265 0.215-0.48 0.48-0.48v0h6.163c0.265 0 0.48 0.215 0.48 0.48v0 3.21c0 0.265-0.215 0.48-0.48 0.48s-0.48-0.215-0.48-0.48v0-2.73h-5.203v3.155l0.066-0.121c0.083-0.15 0.24-0.25 0.421-0.25s0.338 0.1 0.42 0.247l0.001 0.002 0.354 0.647h2.72c0.265 0 0.48 0.215 0.48 0.48s-0.215 0.48-0.48 0.48v0h-1.84l0.719 0.394h2.521l1.992-1.995v-4.492h-8.804zM21.069 9.514h-8.345v4.514l1.695 1.972h6.65zM15.616 2.698c-4.196 0.004-7.844 2.348-9.708 5.798l-0.029 0.058h19.476c-0.41-0.761-0.865-1.417-1.384-2.016l0.012 0.014-0.366 0.669c-0.083 0.15-0.241 0.25-0.421 0.25s-0.338-0.1-0.42-0.247l-0.001-0.002-0.776-1.419-1.419-0.777c-0.15-0.083-0.25-0.241-0.25-0.421s0.1-0.338 0.247-0.42l0.002-0.001 0.284-0.155c-1.511-0.836-3.313-1.329-5.23-1.329-0.006 0-0.012 0-0.018 0h0.001zM23.808 4.182c-0.082-0.045-0.147-0.11-0.191-0.19l-0.001-0.002-0.422-0.772-0.422 0.772c-0.045 0.082-0.11 0.147-0.19 0.191l-0.002 0.001-0.772 0.422 0.772 0.422c0.082 0.045 0.147 0.11 0.191 0.19l0.001 0.002 0.422 0.772 0.422-0.774c0.045-0.082 0.11-0.147 0.19-0.191l0.002-0.001 0.772-0.422zM28.067 10.006c0.265 0 0.48 0.215 0.48 0.48v0 2.673c-0 0.003-0 0.006-0 0.009 0 0.136 0.11 0.247 0.247 0.247s0.247-0.11 0.247-0.247c0-0.003-0-0.006-0-0.009v0-3.399c-0.002-0.135-0.111-0.245-0.247-0.246h-6.765v0.492h6.038zM26.287 10.966h-4.258v5.514c0 0.265-0.215 0.48-0.48 0.48v0h-7.35c-0 0-0 0-0 0-0.145 0-0.275-0.064-0.363-0.166l-0.001-0.001-1.618-1.881-1.906 1.909c-0.087 0.086-0.206 0.139-0.338 0.139-0.001 0-0.001 0-0.002 0h-2.722l-1.222 0.668-0.408 0.745c1.791 3.803 5.591 6.389 9.996 6.389 2.745 0 5.255-1.004 7.183-2.664l-0.014 0.012-1.088-0.595c-0.15-0.083-0.25-0.241-0.25-0.421s0.1-0.338 0.247-0.42l0.002-0.001 1.406-0.768 0.768-1.405c0.083-0.15 0.241-0.25 0.421-0.25s0.338 0.1 0.42 0.247l0.001 0.002 0.43 0.786c0.943-1.588 1.5-3.5 1.5-5.543 0-0.987-0.13-1.944-0.374-2.854l0.018 0.077zM24.687 21.74c0.004-0.009 0.009-0.017 0.014-0.025l0.008-0.015c0.005-0.008 0.012-0.015 0.018-0.023s0.017-0.024 0.026-0.035c0.039-0.054 0.088-0.098 0.145-0.131l0.002-0.001 0.759-0.416-0.759-0.416c-0.082-0.045-0.147-0.11-0.191-0.19l-0.001-0.002-0.416-0.759-0.416 0.759c-0.045 0.082-0.11 0.147-0.19 0.191l-0.002 0.001-0.759 0.416 0.759 0.416c0.082 0.045 0.147 0.11 0.191 0.19l0.001 0.002 0.416 0.759zM2.96 27.862v1.44h5.26v-2.336c0-0.265 0.215-0.48 0.48-0.48s0.48 0.215 0.48 0.48v0 2.336h13.933v-2.336c0-0.265 0.215-0.48 0.48-0.48s0.48 0.215 0.48 0.48v0 2.336h4.966v-1.44c-0.011-2.421-1.526-4.486-3.659-5.309l-0.039-0.013-0.629 1.15c-0.083 0.15-0.241 0.25-0.421 0.25s-0.338-0.1-0.42-0.247l-0.001-0.002-0.465-0.85c-2.080 1.791-4.808 2.882-7.79 2.882-3.24 0-6.179-1.287-8.334-3.377l0.003 0.003c-2.498 0.637-4.316 2.862-4.325 5.514v0.001zM4.313 16.854c0.081 0.045 0.147 0.111 0.191 0.19l0.001 0.002 0.373 0.682 0.374-0.684c0.045-0.082 0.11-0.147 0.19-0.191l0.002-0.001 0.683-0.372-0.684-0.374c-0.082-0.045-0.147-0.11-0.191-0.19l-0.001-0.002-0.374-0.684-0.374 0.684c-0.045 0.081-0.111 0.147-0.19 0.191l-0.002 0.001-0.682 0.374z">
            </path>
            <path style="fill: currentColor;"
                d="M13.647 13.696v-3.21c0-0.265 0.215-0.48 0.48-0.48v0h6.164c0.265 0 0.48 0.215 0.48 0.48v0 4.64c0 0.265-0.215 0.48-0.48 0.48v0h-4.461c-0.265 0-0.48-0.215-0.48-0.48s0.215-0.48 0.48-0.48v0h3.981v-3.68h-5.204v2.73c0 0.265-0.215 0.48-0.48 0.48s-0.48-0.215-0.48-0.48v0z">
            </path>
            <path style="fill: currentColor;"
                d="M13.258 22.176c-0.018 0.003-0.039 0.005-0.061 0.006l-0.001 0h-1.635c-0.023-0.001-0.044-0.003-0.065-0.006l0.003 0c-1.19-0.036-2.141-1.008-2.144-2.202v-0.908c0-0.265 0.215-0.48 0.48-0.48v0h5.086c0.265 0 0.48 0.215 0.48 0.48v0 0.908c-0.003 1.194-0.954 2.166-2.14 2.202l-0.003 0zM14.442 19.545h-4.126v0.428c0.001 0.687 0.558 1.244 1.245 1.246h1.635c0.687-0.002 1.244-0.558 1.245-1.246v-0z">
            </path>
        </symbol>
        <symbol id="icon-github" viewBox="0 0 32 32">
            <path d="M11.386 29.975c0.455-0.196 0.774-0.648 0.774-1.175v-3.456c0-0.126 0.010-0.257 0.026-0.39-0.009 0.003-0.017 0.004-0.026 0.006 0 0-1.92 0-2.304 0-0.96 0-1.792-0.384-2.176-1.152-0.448-0.832-0.64-2.24-1.792-3.008-0.192-0.128-0.064-0.32 0.32-0.32 0.384 0.064 1.216 0.576 1.728 1.28 0.576 0.704 1.152 1.28 2.176 1.28 1.592 0 2.445-0.080 2.958-0.355 0.598-0.889 1.425-1.565 2.29-1.565v-0.016c-3.628-0.116-5.945-1.322-7.024-3.184-2.346 0.027-4.388 0.259-5.553 0.452-0.037-0.209-0.069-0.42-0.097-0.632 1.15-0.189 3.1-0.414 5.341-0.457-0.072-0.177-0.134-0.358-0.186-0.543-2.247-0.114-4.186-0.025-5.24 0.062-0.013-0.212-0.030-0.424-0.033-0.639 1.055-0.086 2.942-0.173 5.132-0.071-0.051-0.32-0.083-0.647-0.083-0.988 0-1.088 0.384-2.24 1.088-3.2-0.32-1.088-0.768-3.392 0.128-4.224 1.728 0 2.944 0.832 3.52 1.344 1.087-0.449 2.303-0.705 3.647-0.705s2.56 0.256 3.584 0.704c0.576-0.512 1.792-1.344 3.52-1.344 0.96 0.896 0.448 3.2 0.128 4.224 0.704 0.96 1.088 2.048 1.024 3.2 0 0.31-0.029 0.609-0.070 0.902 2.239-0.11 4.177-0.022 5.251 0.065-0.001 0.216-0.021 0.426-0.033 0.639-1.069-0.088-3.056-0.179-5.35-0.057-0.057 0.215-0.126 0.424-0.208 0.627 2.269 0.029 4.266 0.249 5.471 0.441-0.028 0.212-0.060 0.423-0.097 0.632-1.224-0.196-3.309-0.425-5.683-0.436-1.066 1.842-3.341 3.043-6.897 3.183v0.020c1.664 0 3.2 2.496 3.2 4.224v3.456c0 0.527 0.319 0.979 0.774 1.175 5.863-1.94 10.106-7.47 10.106-13.975 0-8.116-6.603-14.72-14.72-14.72s-14.72 6.604-14.72 14.72c0 6.505 4.243 12.035 10.106 13.975z"></path>
        </symbol>
    </defs>
</svg>